<mxfile host="Electron" modified="2023-12-23T19:04:27.190Z" agent="Mozilla/5.0 (Windows NT 10.0; Win64; x64) AppleWebKit/537.36 (KHTML, like Gecko) draw.io/22.1.11 Chrome/114.0.5735.289 Electron/25.9.8 Safari/537.36" version="22.1.11" etag="RMiHYn4xxbtm-8vWd8zt" type="device">
  <diagram name="Страница-1" id="Page-1">
    <mxGraphModel dx="1036" dy="614" grid="1" gridSize="10" guides="1" tooltips="1" connect="1" arrows="1" fold="1" page="1" pageScale="1" pageWidth="827" pageHeight="1169" math="0" shadow="0">
      <root>
        <mxCell id="0" />
        <mxCell id="1" parent="0" />
        <UserObject label="&lt;div style=&quot;font-size: 1px&quot;&gt;&lt;font style=&quot;font-size:11.29px;font-family:Calibri;color:#feffff;direction:ltr;letter-spacing:0px;line-height:120%;opacity:1&quot;&gt;Начало&lt;br/&gt;&lt;/font&gt;&lt;/div&gt;" tags="Блок-схема" id="2">
          <mxCell style="verticalAlign=middle;align=center;overflow=width;vsdxID=1;shape=stencil(tVLLDsIgEPwajiQIMfFe638Qu22JCM2Ctv69kK0Rm9qDibeZndkXC1NV6PUATIoQ0V9gNE3smToyKY3rAU1MiKmaqar1CB36m2uIDzo7M7r6e64wUZ4UOUWKB9GdIH4irzWu8B42vRrPScNFXZzN+5mvl3qJXE8mcPRRR+Pdh2Y1dsBTE95a3c0TkBRGgKEIb6wg1/r+ssCXd/vLCgm8z9caa+n6pb48dwrRV1H1Ew==);spacingTop=-1;spacingBottom=-1;spacingLeft=-1;spacingRight=-1;points=[[0.5,1,0],[0.5,0,0],[0,0.5,0],[1,0.5,0]];labelBackgroundColor=none;rounded=0;html=1;whiteSpace=wrap;" parent="1" vertex="1">
            <mxGeometry x="70" y="40" width="100" height="40" as="geometry" />
          </mxCell>
        </UserObject>
        <UserObject label="" tags="Блок-схема" id="3">
          <mxCell style="vsdxID=3;shape=stencil(UzV2Ls5ILEhVNTIoLinKz04tz0wpyVA1dlE1MsrMy0gtyiwBslSNXVWNndPyi1LTi/JL81Ig/IJEkEoQKze/DGRCBUSfrqEBSI+RQSWEb2gA4btBFOdk5iEptiRBrSGawfiUEq2SgGuBDIQ/0zJzciDBhCyPHi5AIUiYGrsCAA==);spacingTop=-1;spacingBottom=-1;spacingLeft=-1;spacingRight=-1;points=[[0,0.5,0],[1,0.5,0],[0.5,1,0],[0.5,0,0]];labelBackgroundColor=none;rounded=0;html=1;whiteSpace=wrap;" parent="1" vertex="1">
            <mxGeometry x="70" y="100" width="100" height="40" as="geometry" />
          </mxCell>
        </UserObject>
        <mxCell id="4" value="&lt;div style=&quot;font-size: 1px&quot;&gt;&lt;p style=&quot;text-align:center;margin-left:0;margin-right:0;margin-top:0px;margin-bottom:0px;text-indent:0;vertical-align:middle;direction:ltr;&quot;&gt;&lt;font style=&quot;font-size:11.29px;font-family:Calibri;color:#feffff;direction:ltr;letter-spacing:0px;line-height:120%;opacity:1&quot;&gt;Ввод строки &#39;&lt;/font&gt;&lt;font style=&quot;font-size:11.29px;font-family:Themed;color:#feffff;direction:ltr;letter-spacing:0px;line-height:120%;opacity:1&quot;&gt;s&#39;&lt;br&gt;&lt;/font&gt;&lt;/p&gt;&lt;/div&gt;" style="text;vsdxID=3;spacingTop=-1;spacingBottom=-1;spacingLeft=-1;spacingRight=-1;points=[[0,0.5,0],[1,0.5,0],[0.5,1,0],[0.5,0,0]];labelBackgroundColor=none;rounded=0;html=1;whiteSpace=wrap;verticalAlign=middle;align=center;overflow=width;;html=1;" parent="3" vertex="1">
          <mxGeometry x="16.67" width="66.67" height="40" as="geometry" />
        </mxCell>
        <UserObject label="" tags="Блок-схема" id="5">
          <mxCell style="vsdxID=4;shape=stencil(UzV2Ls5ILEhVNTIoLinKz04tz0wpyVA1dlE1MsrMy0gtyiwBslSNXVWNndPyi1LTi/JL81Ig/IJEkEoQKze/DGRCBUSfrqEpSI+RQSWEb2hgAOa7QRTnZOYhKbYgQa0hmsH4lBKtkoBrgQyEP9Myc3IgwYQsjx4uQCFImBq7AgA=);spacingTop=-1;spacingBottom=-1;spacingLeft=-1;spacingRight=-1;points=[[0,0.5,0],[1,0.5,0],[0.5,1,0],[0.5,0,0]];labelBackgroundColor=none;rounded=0;html=1;whiteSpace=wrap;" parent="1" vertex="1">
            <mxGeometry x="70" y="220" width="100" height="60" as="geometry" />
          </mxCell>
        </UserObject>
        <mxCell id="6" value="&lt;div style=&quot;font-size: 1px&quot;&gt;&lt;p style=&quot;text-align:center;margin-left:0;margin-right:0;margin-top:0px;margin-bottom:0px;text-indent:0;vertical-align:middle;direction:ltr;&quot;&gt;&lt;font style=&quot;font-size:11.29px;font-family:Calibri;color:#feffff;direction:ltr;letter-spacing:0px;line-height:120%;opacity:1&quot;&gt;Вывод&lt;br/&gt;&lt;/font&gt;&lt;font style=&quot;font-size:11.29px;font-family:Themed;color:#feffff;direction:ltr;letter-spacing:0px;line-height:120%;opacity:1&quot;&gt;s[1],s[2],s[3]&lt;br/&gt;&lt;/font&gt;&lt;/p&gt;&lt;/div&gt;" style="text;vsdxID=4;spacingTop=-1;spacingBottom=-1;spacingLeft=-1;spacingRight=-1;points=[[0,0.5,0],[1,0.5,0],[0.5,1,0],[0.5,0,0]];labelBackgroundColor=none;rounded=0;html=1;whiteSpace=wrap;verticalAlign=middle;align=center;overflow=width;;html=1;" parent="5" vertex="1">
          <mxGeometry x="16.67" width="66.67" height="60" as="geometry" />
        </mxCell>
        <UserObject label="" tags="Блок-схема" id="7">
          <mxCell style="vsdxID=6;shape=stencil(UzV2Ls5ILEhVNTIoLinKz04tz0wpyVA1dlE1MsrMy0gtyiwBslSNXVWNndPyi1LTi/JL81Ig/IJEkEoQKze/DGRCBUSfrqEpSI+RQSWEb2hgAOa7QRTnZOYhKbYgQa0hmsH4lBKtkoBrgQyEP9Myc3IgwYQsjx4uQCFImBq7AgA=);spacingTop=-1;spacingBottom=-1;spacingLeft=-1;spacingRight=-1;points=[[0,0.5,0],[1,0.5,0],[0.5,1,0],[0.5,0,0]];labelBackgroundColor=none;rounded=0;html=1;whiteSpace=wrap;" parent="1" vertex="1">
            <mxGeometry x="70" y="300" width="100" height="60" as="geometry" />
          </mxCell>
        </UserObject>
        <mxCell id="8" value="&lt;div style=&quot;font-size: 1px&quot;&gt;&lt;p style=&quot;text-align:center;margin-left:0;margin-right:0;margin-top:0px;margin-bottom:0px;text-indent:0;vertical-align:middle;direction:ltr;&quot;&gt;&lt;font style=&quot;font-size:11.29px;font-family:Calibri;color:#feffff;direction:ltr;letter-spacing:0px;line-height:120%;opacity:1&quot;&gt;Вывод&lt;br/&gt;&lt;/font&gt;&lt;font style=&quot;font-size:11.29px;font-family:Themed;color:#feffff;direction:ltr;letter-spacing:0px;line-height:120%;opacity:1&quot;&gt;s[len-2],&lt;br/&gt;s[len-1],&lt;br/&gt;s[len]&lt;br/&gt;&lt;/font&gt;&lt;/p&gt;&lt;/div&gt;" style="text;vsdxID=6;spacingTop=-1;spacingBottom=-1;spacingLeft=-1;spacingRight=-1;points=[[0,0.5,0],[1,0.5,0],[0.5,1,0],[0.5,0,0]];labelBackgroundColor=none;rounded=0;html=1;whiteSpace=wrap;verticalAlign=middle;align=center;overflow=width;;html=1;" parent="7" vertex="1">
          <mxGeometry x="16.67" width="66.67" height="60" as="geometry" />
        </mxCell>
        <UserObject label="&lt;div style=&quot;font-size: 1px&quot;&gt;&lt;font style=&quot;font-size:11.29px;font-family:Calibri;color:#feffff;direction:ltr;letter-spacing:0px;line-height:120%;opacity:1&quot;&gt;Конец&lt;br/&gt;&lt;/font&gt;&lt;/div&gt;" tags="Блок-схема" id="9">
          <mxCell style="verticalAlign=middle;align=center;overflow=width;vsdxID=7;shape=stencil(tVLLDsIgEPwajiQIMfFe638Qu22JCM2Ctv69kK0Rm9qDibeZndkXC1NV6PUATIoQ0V9gNE3smToyKY3rAU1MiKmaqar1CB36m2uIDzo7M7r6e64wUZ4UOUWKB9GdIH4irzWu8B42vRrPScNFXZzN+5mvl3qJXE8mcPRRR+Pdh2Y1dsBTE95a3c0TkBRGgKEIb6wg1/r+ssCXd/vLCgm8z9caa+n6pb48dwrRV1H1Ew==);spacingTop=-1;spacingBottom=-1;spacingLeft=-1;spacingRight=-1;points=[[0.5,1,0],[0.5,0,0],[0,0.5,0],[1,0.5,0]];labelBackgroundColor=none;rounded=0;html=1;whiteSpace=wrap;" parent="1" vertex="1">
            <mxGeometry x="70" y="380" width="100" height="40" as="geometry" />
          </mxCell>
        </UserObject>
        <UserObject label="&lt;div style=&quot;font-size: 1px&quot;&gt;&lt;p style=&quot;text-align:center;margin-left:0;margin-right:0;margin-top:0px;margin-bottom:0px;text-indent:0;vertical-align:middle;direction:ltr;&quot;&gt;&lt;font style=&quot;font-size:11.29px;font-family:Calibri;color:#feffff;direction:ltr;letter-spacing:0px;line-height:120%;opacity:1&quot;&gt;len = &lt;/font&gt;&lt;font style=&quot;font-size:11.29px;font-family:Themed;color:#feffff;direction:ltr;letter-spacing:0px;line-height:120%;opacity:1&quot;&gt;длина строки &#39;&lt;/font&gt;&lt;font style=&quot;font-size:11.29px;font-family:Themed;color:#feffff;direction:ltr;letter-spacing:0px;line-height:120%;opacity:1&quot;&gt;s&#39;&lt;br&gt;&lt;/font&gt;&lt;/p&gt;&lt;/div&gt;" tags="Блок-схема" id="10">
          <mxCell style="verticalAlign=middle;align=center;overflow=width;vsdxID=14;shape=stencil(nZBLDoAgDERP0z3SIyjew0SURgSD+Lu9kMZoXLhwN9O+tukAlrNpJg1SzDH4QW/URgNYgZTkjA4UkwJUgGXng+6DX1zLfmoymdXo17xh5zmRJ6Q42BWCfc2oJfdAr+Yv+AP9Cb7OJ3H/2JG1HNGz/84klThPVCc=);spacingTop=-1;spacingBottom=-1;spacingLeft=-1;spacingRight=-1;points=[[0,0.5,0],[1,0.5,0],[0.5,1,0],[0.5,0,0]];labelBackgroundColor=none;rounded=0;html=1;whiteSpace=wrap;" parent="1" vertex="1">
            <mxGeometry x="70" y="156" width="100" height="40" as="geometry" />
          </mxCell>
        </UserObject>
        <UserObject label="&lt;div style=&quot;font-size: 1px&quot;&gt;&lt;p style=&quot;text-align:left;margin-left:0;margin-right:0;margin-top:0px;margin-bottom:0px;text-indent:0;vertical-align:middle;direction:ltr;&quot;&gt;&lt;font style=&quot;font-size: 14.11px; font-family: Calibri; direction: ltr; letter-spacing: 0px; line-height: 120%; opacity: 1;&quot;&gt;&lt;font color=&quot;#ffffff&quot;&gt;Первые 3 символа&lt;/font&gt;&lt;br&gt;&lt;/font&gt;&lt;/p&gt;&lt;/div&gt;" tags="Выноска" id="11">
          <mxCell style="verticalAlign=middle;align=left;overflow=width;vsdxID=12;shape=stencil(nZA7DoQwDERP43IlEwsuAOw9kAibCEhQCL/bbyIXfIoUdDP2mykGqJxVM0kQOHtne7np1iugCoTQRkmnfVBANVDZWSd/zi6mZT81kYxqtGts2DmHMSHwYJez/TI5aHMhP5Ri763FjUyU4jswwwRapNAgzil4xevvOVs48eRU/wE=);dashed=1;strokeWidth=2;points=[];labelBackgroundColor=none;rounded=0;html=1;whiteSpace=wrap;" parent="1" vertex="1">
            <mxGeometry x="200" y="232" width="100" height="48" as="geometry" />
          </mxCell>
        </UserObject>
        <UserObject label="&lt;div style=&quot;font-size: 1px&quot;&gt;&lt;p style=&quot;text-align:left;margin-left:0;margin-right:0;margin-top:0px;margin-bottom:0px;text-indent:0;vertical-align:middle;direction:ltr;&quot;&gt;&lt;font style=&quot;font-size: 14.11px; font-family: Calibri; direction: ltr; letter-spacing: 0px; line-height: 120%; opacity: 1;&quot;&gt;&lt;font color=&quot;#ffffff&quot;&gt;Последние 3 символа&lt;/font&gt;&lt;br&gt;&lt;/font&gt;&lt;/p&gt;&lt;/div&gt;" tags="Выноска" id="12">
          <mxCell style="verticalAlign=middle;align=left;overflow=width;vsdxID=13;fillColor=#ffffff;gradientColor=none;shape=stencil(nZA7DoQwDERP43IlEwsuAOw9kAibCEhQCL/bbyIXfIoUdDP2mykGqJxVM0kQOHtne7np1iugCoTQRkmnfVBANVDZWSd/zi6mZT81kYxqtGts2DmHMSHwYJez/TI5aHMhP5Ri763FjUyU4jswwwRapNAgzil4xevvOVs48eRU/wE=);dashed=1;strokeColor=#FFFFFF;strokeWidth=2;points=[];labelBackgroundColor=none;rounded=0;html=1;whiteSpace=wrap;" parent="1" vertex="1">
            <mxGeometry x="200" y="306" width="100" height="48" as="geometry" />
          </mxCell>
        </UserObject>
        <UserObject label="" tags="Соединительная_линия" id="13">
          <mxCell style="vsdxID=8;edgeStyle=none;startArrow=none;endArrow=block;startSize=5;endSize=5;spacingTop=0;spacingBottom=0;spacingLeft=0;spacingRight=0;verticalAlign=middle;html=1;labelBackgroundColor=#ffffff;rounded=0;exitX=0.5;exitY=1;exitDx=0;exitDy=0;exitPerimeter=0;entryX=0.5;entryY=0;entryDx=0;entryDy=0;entryPerimeter=0;" parent="1" source="2" target="3" edge="1">
            <mxGeometry relative="1" as="geometry">
              <mxPoint x="10" as="offset" />
              <Array as="points" />
            </mxGeometry>
          </mxCell>
        </UserObject>
        <UserObject label="" tags="Соединительная_линия" id="14">
          <mxCell style="vsdxID=10;edgeStyle=none;startArrow=none;endArrow=block;startSize=5;endSize=5;spacingTop=0;spacingBottom=0;spacingLeft=0;spacingRight=0;verticalAlign=middle;html=1;labelBackgroundColor=#ffffff;rounded=0;exitX=0.5;exitY=1;exitDx=0;exitDy=0;exitPerimeter=0;entryX=0.5;entryY=0;entryDx=0;entryDy=0;entryPerimeter=0;" parent="1" source="5" target="7" edge="1">
            <mxGeometry relative="1" as="geometry">
              <mxPoint x="10" as="offset" />
              <Array as="points" />
            </mxGeometry>
          </mxCell>
        </UserObject>
        <UserObject label="" tags="Соединительная_линия" id="15">
          <mxCell style="vsdxID=11;edgeStyle=none;startArrow=none;endArrow=block;startSize=5;endSize=5;spacingTop=0;spacingBottom=0;spacingLeft=0;spacingRight=0;verticalAlign=middle;html=1;labelBackgroundColor=#ffffff;rounded=0;exitX=0.5;exitY=1;exitDx=0;exitDy=0;exitPerimeter=0;entryX=0.5;entryY=0;entryDx=0;entryDy=0;entryPerimeter=0;" parent="1" source="7" target="9" edge="1">
            <mxGeometry relative="1" as="geometry">
              <mxPoint x="10" as="offset" />
              <Array as="points" />
            </mxGeometry>
          </mxCell>
        </UserObject>
        <UserObject label="" tags="Соединительная_линия" id="16">
          <mxCell style="vsdxID=15;edgeStyle=none;startArrow=none;endArrow=block;startSize=5;endSize=5;spacingTop=0;spacingBottom=0;spacingLeft=0;spacingRight=0;verticalAlign=middle;html=1;labelBackgroundColor=#ffffff;rounded=0;exitX=0.5;exitY=1;exitDx=0;exitDy=0;exitPerimeter=0;entryX=0.5;entryY=0;entryDx=0;entryDy=0;entryPerimeter=0;" parent="1" source="3" target="10" edge="1">
            <mxGeometry relative="1" as="geometry">
              <mxPoint x="10" as="offset" />
              <Array as="points" />
            </mxGeometry>
          </mxCell>
        </UserObject>
        <UserObject label="" tags="Соединительная_линия" id="17">
          <mxCell style="vsdxID=16;edgeStyle=none;startArrow=none;endArrow=block;startSize=5;endSize=5;spacingTop=0;spacingBottom=0;spacingLeft=0;spacingRight=0;verticalAlign=middle;html=1;labelBackgroundColor=#ffffff;rounded=0;exitX=0.5;exitY=1;exitDx=0;exitDy=0;exitPerimeter=0;entryX=0.5;entryY=0;entryDx=0;entryDy=0;entryPerimeter=0;" parent="1" source="10" target="5" edge="1">
            <mxGeometry relative="1" as="geometry">
              <mxPoint x="10" y="-1" as="offset" />
              <Array as="points" />
            </mxGeometry>
          </mxCell>
        </UserObject>
      </root>
    </mxGraphModel>
  </diagram>
</mxfile>
